<svg width="1189" height="802" xmlns="http://www.w3.org/2000/svg" xmlns:xlink="http://www.w3.org/1999/xlink" xml:space="preserve" overflow="hidden"><defs><filter id="fx0" x="-10%" y="-10%" width="120%" height="120%" filterUnits="userSpaceOnUse" primitiveUnits="userSpaceOnUse"><feComponentTransfer color-interpolation-filters="sRGB"><feFuncR type="discrete" tableValues="0 0"/><feFuncG type="discrete" tableValues="0 0"/><feFuncB type="discrete" tableValues="0 0"/><feFuncA type="linear" slope="0.301961" intercept="0"/></feComponentTransfer><feGaussianBlur stdDeviation="3.56855 3.56855"/></filter><clipPath id="clip1"><rect x="2946" y="1590" width="149" height="296"/></clipPath><clipPath id="clip2"><rect x="2946" y="1590" width="149" height="296"/></clipPath></defs><g transform="translate(-2258 -1493)"><g filter="url(#fx0)" transform="translate(2336 1665)"><g><path d="M404.105 81.4467C396.194 81.4467 390.058 84.5144 385.699 90.6498 381.34 96.7852 379.16 105.665 379.16 117.29 379.16 130.046 381.239 139.491 385.396 145.626 389.554 151.762 395.265 154.829 402.531 154.829 409.312 154.829 415.165 152.932 420.09 149.138 425.014 145.344 428.768 140.904 431.351 135.818L431.351 101.306C428.849 95.9779 425.337 91.336 420.816 87.3803 416.295 83.4245 410.725 81.4467 404.105 81.4467ZM266.832 79.5092C259.405 79.5092 253.33 81.6081 248.607 85.806 243.885 90.004 241.281 96.099 240.797 104.091L292.019 104.091C291.777 95.8568 289.335 89.7012 284.693 85.6244 280.051 81.5476 274.097 79.5092 266.832 79.5092ZM266.832 57.2279C284.431 57.2279 298.336 62.3744 308.549 72.6674 318.761 82.9603 323.867 97.6329 323.867 116.685 323.867 117.654 323.827 118.966 323.746 120.62 323.665 122.275 323.544 123.547 323.383 124.435L240.433 124.435C240.595 130.005 241.624 135.212 243.521 140.056 245.418 144.9 248.426 148.795 252.543 151.742 256.66 154.688 262.069 156.161 268.769 156.161 275.712 156.161 281.282 154.648 285.48 151.62 289.678 148.593 291.817 144.092 291.898 138.119L323.504 138.119C323.1 147.322 320.577 154.991 315.935 161.126 311.293 167.262 304.956 171.843 296.924 174.87 288.891 177.898 279.506 179.411 268.769 179.411 255.61 179.411 244.551 176.969 235.59 172.085 226.629 167.201 219.847 160.158 215.246 150.954 210.644 141.751 208.343 130.691 208.343 117.775 208.343 105.262 210.584 94.4844 215.064 85.4428 219.545 76.4011 226.124 69.4382 234.802 64.5541 243.481 59.67 254.157 57.2279 266.832 57.2279ZM431.351 14.2396 463.441 14.2396 463.441 177.232 432.683 177.232 431.351 160.4C427.153 166.212 421.946 170.814 415.73 174.204 409.514 177.595 401.966 179.29 393.086 179.29 384.205 179.29 376.233 177.07 369.17 172.63 362.106 168.19 356.536 161.389 352.459 152.226 348.382 143.063 346.343 131.418 346.343 117.29 346.343 103.647 348.543 92.3855 352.943 83.5053 357.343 74.6251 363.297 68.0053 370.804 63.6459 378.312 59.2865 386.748 57.1068 396.113 57.1068 404.347 57.1068 411.411 58.8021 417.304 62.1928 423.198 65.5834 427.88 70.0235 431.351 75.5131ZM13.699 14.2396 52.8123 14.2396 97.084 89.5646 140.726 14.2396 178.386 14.2396 178.386 177.232 144.843 177.232 144.843 58.3337 106.457 125.161 85.5076 125.161 46.2732 58.524 46.2732 177.232 13.699 177.232Z" stroke="#FF99CC" stroke-width="4" stroke-linejoin="round" stroke-miterlimit="10" fill="#FF99CC" fill-rule="evenodd"/></g></g><path d="M2740.11 1739.99C2732.19 1739.99 2726.06 1743.05 2721.7 1749.19 2717.34 1755.33 2715.16 1764.21 2715.16 1775.83 2715.16 1788.59 2717.24 1798.03 2721.4 1804.17 2725.55 1810.3 2731.27 1813.37 2738.53 1813.37 2745.31 1813.37 2751.17 1811.47 2756.09 1807.68 2761.01 1803.88 2764.77 1799.44 2767.35 1794.36L2767.35 1759.85C2764.85 1754.52 2761.34 1749.88 2756.82 1745.92 2752.3 1741.96 2746.73 1739.99 2740.11 1739.99ZM2602.83 1738.05C2595.4 1738.05 2589.33 1740.15 2584.61 1744.35 2579.88 1748.54 2577.28 1754.64 2576.8 1762.63L2628.02 1762.63C2627.78 1754.4 2625.33 1748.24 2620.69 1744.16 2616.05 1740.09 2610.1 1738.05 2602.83 1738.05ZM2602.83 1715.77C2620.43 1715.77 2634.34 1720.91 2644.55 1731.21 2654.76 1741.5 2659.87 1756.17 2659.87 1775.23 2659.87 1776.19 2659.83 1777.51 2659.75 1779.16 2659.67 1780.82 2659.54 1782.09 2659.38 1782.98L2576.43 1782.98C2576.59 1788.55 2577.62 1793.75 2579.52 1798.6 2581.42 1803.44 2584.43 1807.34 2588.54 1810.28 2592.66 1813.23 2598.07 1814.7 2604.77 1814.7 2611.71 1814.7 2617.28 1813.19 2621.48 1810.16 2625.68 1807.13 2627.82 1802.63 2627.9 1796.66L2659.5 1796.66C2659.1 1805.86 2656.58 1813.53 2651.94 1819.67 2647.29 1825.8 2640.96 1830.38 2632.92 1833.41 2624.89 1836.44 2615.51 1837.95 2604.77 1837.95 2591.61 1837.95 2580.55 1835.51 2571.59 1830.63 2562.63 1825.74 2555.85 1818.7 2551.25 1809.49 2546.64 1800.29 2544.34 1789.23 2544.34 1776.31 2544.34 1763.8 2546.58 1753.02 2551.06 1743.98 2555.54 1734.94 2562.12 1727.98 2570.8 1723.09 2579.48 1718.21 2590.16 1715.77 2602.83 1715.77ZM2767.35 1672.78 2799.44 1672.78 2799.44 1835.77 2768.68 1835.77 2767.35 1818.94C2763.15 1824.75 2757.95 1829.35 2751.73 1832.74 2745.51 1836.14 2737.97 1837.83 2729.09 1837.83 2720.21 1837.83 2712.23 1835.61 2705.17 1831.17 2698.11 1826.73 2692.54 1819.93 2688.46 1810.77 2684.38 1801.6 2682.34 1789.96 2682.34 1775.83 2682.34 1762.19 2684.54 1750.93 2688.94 1742.05 2693.34 1733.17 2699.3 1726.55 2706.8 1722.19 2714.31 1717.83 2722.75 1715.65 2732.11 1715.65 2740.35 1715.65 2747.41 1717.34 2753.3 1720.73 2759.2 1724.12 2763.88 1728.56 2767.35 1734.05ZM2349.7 1672.78 2388.81 1672.78 2433.08 1748.1 2476.73 1672.78 2514.39 1672.78 2514.39 1835.77 2480.84 1835.77 2480.84 1716.87 2442.46 1783.7 2421.51 1783.7 2382.27 1717.06 2382.27 1835.77 2349.7 1835.77Z" stroke="#FF99CC" stroke-width="4" stroke-linejoin="round" stroke-miterlimit="10" fill="#FF99CC" fill-rule="evenodd"/><text fill="#000000" fill-opacity="0" font-family="Arial,Arial_MSFontService,sans-serif" font-size="165.172" x="2349.7" y="1817.31">Med</text><g><g><g><path d="M460.138 111.258C464.82 111.433 468.481 115.357 468.333 120.04L468.333 361.887C468.216 366.364 464.615 369.966 460.138 370.083L388.717 370.083 388.717 433.893 329.191 373.028 325.749 369.515 101.863 369.515C97.4344 369.613 93.765 366.103 93.6667 361.675 93.6643 361.556 93.6643 361.437 93.6667 361.319L93.6667 119.46C93.7838 114.983 97.3852 111.381 101.863 111.264L460.138 111.264M460.138 99.556 101.863 99.556C90.9176 99.6701 82.0725 108.515 81.9583 119.46L81.9583 361.302C81.8676 372.203 90.6313 381.115 101.534 381.206 101.643 381.206 101.753 381.206 101.863 381.206L320.808 381.206 400.425 462.579 400.425 381.791 460.138 381.791C471.082 381.677 479.928 372.832 480.042 361.887L480.042 120.046C480.179 108.901 471.282 99.7421 460.138 99.556Z" fill="#FFFFFF" transform="matrix(1.25623 0 0 1 2741 1493)"/></g></g></g><text fill="#FFFFFF" font-family="Aptos,Aptos_MSFontService,sans-serif" font-weight="700" font-size="248" transform="matrix(1 0 0 1 2406.71 2077)">Assist</text><g><g><g><path d="M45.9375 170.333C45.9304 161.538 49.4961 153.116 55.8171 147 46.9616 132.287 51.71 113.181 66.4229 104.325 67.1686 103.877 67.9327 103.459 68.7133 103.075 64.6549 89.459 72.4027 75.1314 86.0182 71.0732 86.2504 71.004 86.4837 70.9382 86.7177 70.8754 87.7234 55.9372 100.649 44.643 115.587 45.6487 129.814 46.6066 140.867 58.4227 140.875 72.6823L140.875 223.226C140.877 234.461 131.771 243.572 120.535 243.574 111.641 243.576 103.777 237.801 101.118 229.314 85.0459 232.847 69.1531 222.683 65.6199 206.611 65.155 204.496 64.9219 202.337 64.925 200.171 64.925 200.079 64.925 199.99 64.925 199.902 53.3588 194.606 45.9409 183.054 45.9375 170.333Z" stroke="#FF99CC" stroke-width="3.0625" fill="#FF99CC" transform="matrix(1 0 0 1 2947 1591)"/><path d="M233.638 65.0567C230.255 65.0576 227.512 62.316 227.511 58.9335 227.511 57.3085 228.156 55.7503 229.305 54.6013L242.296 41.6071C244.687 39.2147 248.566 39.2141 250.958 41.6056 253.35 43.9971 253.351 47.8754 250.96 50.2679L237.956 63.262C236.812 64.4096 235.258 65.0551 233.638 65.0567Z" stroke="#FF99CC" stroke-width="3.0625" fill="#FF99CC" transform="matrix(1 0 0 1 2947 1591)"/><path d="M254.775 106.171C251.393 106.174 248.647 103.435 248.644 100.052 248.641 97.5865 250.117 95.3592 252.39 94.4015L271.592 86.2828C274.676 84.8949 278.302 86.2706 279.69 89.3558 281.078 92.4406 279.702 96.0663 276.617 97.4542 276.534 97.4922 276.449 97.528 276.363 97.562L257.158 105.684C256.404 106.004 255.594 106.169 254.775 106.171Z" stroke="#FF99CC" stroke-width="3.0625" fill="#FF99CC" transform="matrix(1 0 0 1 2947 1591)"/><path d="M281.75 151.695 264.79 151.695C261.407 151.695 258.665 148.953 258.665 145.57 258.665 142.187 261.407 139.445 264.79 139.445L281.75 139.445C285.133 139.445 287.875 142.187 287.875 145.57 287.875 148.953 285.133 151.695 281.75 151.695Z" stroke="#FF99CC" stroke-width="3.0625" fill="#FF99CC" transform="matrix(1 0 0 1 2947 1591)"/><path d="M278.669 207.294C277.793 207.294 276.927 207.105 276.13 206.74L259.868 199.314C256.791 197.907 255.436 194.272 256.843 191.195 258.249 188.117 261.884 186.763 264.961 188.169L281.22 195.596C284.299 196.998 285.657 200.631 284.254 203.709 283.258 205.897 281.073 207.299 278.669 207.294Z" stroke="#FF99CC" stroke-width="3.0625" fill="#FF99CC" transform="matrix(1 0 0 1 2947 1591)"/><path d="M248.534 253.226C246.91 253.225 245.352 252.58 244.204 251.431L231.219 238.437C228.786 236.087 228.718 232.209 231.068 229.776 233.418 227.343 237.296 227.276 239.729 229.626 239.78 229.675 239.83 229.725 239.879 229.776L252.874 242.767C255.267 245.158 255.269 249.036 252.879 251.429 251.729 252.58 250.169 253.226 248.543 253.226Z" stroke="#FF99CC" stroke-width="3.0625" fill="#FF99CC" transform="matrix(1 0 0 1 2947 1591)"/><path d="M248.062 170.333C248.071 161.538 244.506 153.116 238.186 147 247.041 132.286 242.291 113.18 227.578 104.326 226.832 103.877 226.068 103.459 225.287 103.075 229.345 89.459 221.598 75.1314 207.983 71.0726 207.751 71.0037 207.519 70.9379 207.285 70.8754 206.305 55.9356 193.399 44.6191 178.459 45.5994 164.195 46.5353 153.108 58.3872 153.125 72.6823L153.125 223.226C153.128 234.463 162.24 243.57 173.478 243.567 182.366 243.564 190.223 237.794 192.885 229.314 208.955 232.847 224.847 222.684 228.38 206.615 228.845 204.498 229.078 202.338 229.075 200.171 229.075 200.079 229.075 199.99 229.075 199.902 240.641 194.606 248.059 183.054 248.062 170.333ZM195.081 171.301C195.081 171.301 170.364 152.399 170.364 137.133 170.364 126.956 185.921 116.05 195.081 134.226 204.241 116.05 219.796 126.956 219.796 137.133 219.808 152.399 195.081 171.301 195.081 171.301Z" stroke="#FF99CC" stroke-width="3.0625" fill="#FF99CC" transform="matrix(1 0 0 1 2947 1591)"/></g></g></g><g clip-path="url(#clip1)"><g clip-path="url(#clip2)"><g><path d="M45.8697 170.082C45.8626 161.299 49.423 152.89 55.7347 146.783 46.8922 132.091 51.6336 113.014 66.3248 104.171 67.0694 103.723 67.8324 103.306 68.6118 102.922 64.5594 89.3269 72.2958 75.0204 85.8912 70.9683 86.123 70.8992 86.356 70.8335 86.5897 70.7708 87.5939 55.8546 100.5 44.577 115.416 45.5813 129.623 46.5378 140.659 58.3364 140.667 72.575L140.667 222.896C140.669 234.115 131.576 243.212 120.357 243.214 111.476 243.216 103.624 237.449 100.968 228.975 84.9203 232.503 69.051 222.354 65.523 206.306 65.0588 204.194 64.826 202.038 64.8291 199.875 64.8291 199.784 64.8291 199.695 64.8291 199.606 53.28 194.319 45.873 182.784 45.8697 170.082Z" stroke="#FF99CC" stroke-width="3.05798" fill="#FF99CC" transform="matrix(-1 0 0 1.00148 3240.57 1591)"/><path d="M233.293 64.9606C229.915 64.9615 227.176 62.224 227.175 58.8465 227.175 57.2239 227.819 55.668 228.966 54.5207L241.938 41.5457C244.326 39.1568 248.199 39.1562 250.587 41.5441 252.976 43.9321 252.977 47.8047 250.589 50.1936L237.605 63.1686C236.462 64.3145 234.911 64.9591 233.293 64.9606Z" stroke="#FF99CC" stroke-width="3.05798" fill="#FF99CC" transform="matrix(-1 0 0 1.00148 3240.57 1591)"/><path d="M254.399 106.014C251.021 106.018 248.28 103.283 248.277 99.9047 248.274 97.4424 249.748 95.2184 252.017 94.2621L271.191 86.1554C274.271 84.7696 277.892 86.1432 279.277 89.2238 280.663 92.3041 279.289 95.9245 276.209 97.3103 276.125 97.3483 276.041 97.384 275.955 97.418L256.778 105.528C256.026 105.847 255.217 106.012 254.399 106.014Z" stroke="#FF99CC" stroke-width="3.05798" fill="#FF99CC" transform="matrix(-1 0 0 1.00148 3240.57 1591)"/><path d="M281.334 151.471 264.399 151.471C261.021 151.471 258.283 148.733 258.283 145.355 258.283 141.977 261.021 139.239 264.399 139.239L281.334 139.239C284.712 139.239 287.45 141.977 287.45 145.355 287.45 148.733 284.712 151.471 281.334 151.471Z" stroke="#FF99CC" stroke-width="3.05798" fill="#FF99CC" transform="matrix(-1 0 0 1.00148 3240.57 1591)"/><path d="M278.258 206.988C277.383 206.988 276.518 206.8 275.723 206.435L259.485 199.019C256.412 197.615 255.059 193.986 256.463 190.913 257.868 187.84 261.497 186.487 264.57 187.891L280.805 195.307C283.879 196.707 285.235 200.334 283.835 203.408 282.839 205.593 280.658 206.993 278.258 206.988Z" stroke="#FF99CC" stroke-width="3.05798" fill="#FF99CC" transform="matrix(-1 0 0 1.00148 3240.57 1591)"/><path d="M248.167 252.852C246.545 252.852 244.99 252.207 243.843 251.06L230.877 238.085C228.448 235.738 228.38 231.867 230.727 229.437 233.074 227.007 236.945 226.94 239.375 229.286 239.426 229.336 239.476 229.386 239.525 229.437L252.5 242.409C254.89 244.796 254.892 248.668 252.505 251.058 251.357 252.207 249.8 252.853 248.176 252.852Z" stroke="#FF99CC" stroke-width="3.05798" fill="#FF99CC" transform="matrix(-1 0 0 1.00148 3240.57 1591)"/><path d="M247.696 170.082C247.704 161.299 244.145 152.89 237.834 146.783 246.676 132.091 241.934 113.013 227.242 104.172 226.497 103.723 225.734 103.306 224.954 102.922 229.007 89.3269 221.271 75.0204 207.675 70.9677 207.444 70.8989 207.212 70.8331 206.979 70.7708 206 55.853 193.113 44.5532 178.196 45.5321 163.952 46.4666 152.882 58.3009 152.899 72.575L152.899 222.896C152.902 234.117 162.001 243.21 173.222 243.207 182.096 243.205 189.943 237.442 192.601 228.975 208.647 232.503 224.515 222.355 228.043 206.309 228.507 204.196 228.74 202.039 228.737 199.875 228.737 199.784 228.737 199.695 228.737 199.606 240.286 194.319 247.693 182.784 247.696 170.082ZM194.793 171.048C194.793 171.048 170.112 152.174 170.112 136.93 170.112 126.768 185.647 115.879 194.793 134.028 203.94 115.879 219.471 126.768 219.471 136.93 219.483 152.174 194.793 171.048 194.793 171.048Z" stroke="#FF99CC" stroke-width="3.05798" fill="#FF99CC" transform="matrix(-1 0 0 1.00148 3240.57 1591)"/></g></g></g></g></svg>